<?xml version="1.0" encoding="UTF-8"?>
<svg id="Layer_2" data-name="Layer 2" xmlns="http://www.w3.org/2000/svg" viewBox="0 0 641.75 781.45">
  <defs>
    <style>
      .cls-1 {
        fill: #d4b473;
      }
    </style>
  </defs>
  <g id="Layer_1-2" data-name="Layer 1">
    <path class="cls-1" d="M177.09,773.62l-6.32,7.83h-54.93c-35.04,0-54.93-.35-54.93-.98,0-.53,4.39-6.04,9.77-12.25,5.37-6.2,14.68-17.12,20.69-24.27,6.02-7.15,12.76-15.05,14.99-17.55s4.95-5.66,6.05-7.01c1.84-2.27,14.13-16.68,25.53-29.94,8.19-9.53,44.87-52.69,59.87-70.45,7.93-9.38,16.03-18.87,18-21.09,1.98-2.23,5.4-6.25,7.6-8.95,3.42-4.2,11.01-13.08,21.38-25.03,9.16-10.56,12.18-14.58,11.63-15.47-.42-.67-34.53-1.01-101.57-1.01H53.91v-37.51c0-25.1,0-30.96-2.92-33.86-1.03-1.02-2.42-1.67-4.31-2.67-7.23-3.83-8.07-4.34-14.77-8.91-7.61-5.19-18-14.79-18-16.64,0-.92,1.05-1.12,3.75-.68l3.75.6-3.7-4.11c-3.44-3.83-4.82-7.05-6.42-15.05-1.11-5.56-2.38-4.54-2.5,2.02-.06,3.47-.44,7.66-.83,9.31l-.72,3-.59-3.5c-3.89-22.97-4.32-35.89-1.79-52.9,1.18-7.92,2.51-15.12,2.96-16,1.2-2.34,2.24-10.11,1.35-10.06-.42.02-2.28,2.11-4.14,4.63-3,4.07-3.5,4.39-4.39,2.81-1.59-2.84-.05-16.25,2.75-23.98,5.58-15.39,13.84-29.52,26.7-45.7,8.95-11.26,34.52-35.96,52.32-50.55,15.35-12.58,17.21-14.45,24.49-24.75,2.73-3.85,6.4-8.91,8.16-11.24,1.76-2.34,2.95-4.49,2.65-4.79-.8-.8-5.67,1.49-10.8,5.07-5.23,3.65-8,4.82-8,3.37,0-2.34,21-34,24.45-36.86.85-.71,1.55-1.69,1.55-2.17,0-1.54-1.96-.95-3.73,1.12-1.87,2.18-4.27,2.67-4.27.86,0-2.74,12.31-19.78,21.81-30.18,2.41-2.64,4.14-5.06,3.83-5.37-.3-.31-2.44.42-4.74,1.62-2.36,1.24-4.56,1.81-5.05,1.32-1.24-1.24,12.19-17.33,27.5-32.97,4.42-4.52,7.79-8.48,7.47-8.79-.31-.31-4.06.82-8.32,2.51-4.27,1.69-8.15,2.95-8.62,2.79-2.59-.86,44.63-46.77,63.87-62.1,7.09-5.65,8.23-7.31,6.29-9.25-2.18-2.18-7.05-16.07-7.64-21.79l-.63-6.17,3.82-1.82C227.73,2.75,242.5.05,260.91,0c16.1-.06,24.02,1.25,33.61,5.52,5.71,2.54,7.02,2.72,20.49,2.74,12.63.01,14.15-.16,12.45-1.4-1.06-.77-2.52-1.41-3.24-1.41s-1.31-.45-1.31-1c0-1.46,10.25-1.22,19.5.44,12.43,2.24,24.43,6.24,31,10.33l6,3.73,11.81-.32c11.77-.32,11.81-.31,16.72,2.84,5.39,3.46,14.75,13.09,18.51,19.05,2.08,3.29,3.04,3.89,7.18,4.45,8.42,1.14,19,4.35,24.47,7.44,2.92,1.65,6.66,3.74,8.31,4.64,1.65.91,4.91,3.2,7.25,5.09,5.01,4.06,5.39,6.7,2.24,15.83-3,8.74-11.07,25.12-16.07,32.63-2.43,3.65-5.9,9.28-7.7,12.51-3.96,7.08-19.79,25.29-24.54,28.23-6.35,3.93-7.06,2.62-3.14-5.81,3.16-6.78,4.5-17.08,2.22-17.08-.83,0-3.26,2.13-5.39,4.74-2.13,2.6-4.47,5.42-5.2,6.25-5.97,6.79-11.07,15.4-13.32,22.51-1.04,3.31-.09,22.5,1.12,22.5.42,0,1.55-2.52,2.52-5.6,1.68-5.34,1.83-5.51,3.44-3.75,3.21,3.54,6.89,19.21,6.49,27.66-.2,4.36.11,5.12,3.27,8,3.48,3.17,3.5,3.22,3.15,10.68l-.34,7.49,6.5.75c21.5,2.48,44.33,7.26,43.72,9.14-.2.62-4.38,1.94-9.29,2.92-4.9.99-9.31,2.19-9.8,2.68s1.62,2.19,5,3.96c3.23,1.7,7.55,4.21,9.61,5.58l3.73,2.5,2.77-3.21c11.98-13.93,21.05-21.3,33.43-27.17,14.77-7.01,20.74-7.08,47.05-.52,19.08,4.75,60.1,16.46,62.85,17.93,2.27,1.21,8.48,10.66,11.15,16.96,1.05,2.48,2.31,5.4,2.81,6.5,6.76,15,10.61,49.46,9.67,86.5-.52,20.72-1.15,23.43-7.7,33.23-3.91,5.86-4.65,7.73-8.98,22.48-3.7,12.65-9.75,18.96-43.22,45.16-18.35,14.35-27.82,21.49-30.8,23.2-1.42.81-1.88,69.98-2,300.68v3.25h-88.99l-.26-116.25-.25-116.25-46.5-.54v-72.96l138.5-.05,11-8.49c6.05-4.68,16.36-12.63,22.9-17.68,6.55-5.05,16.23-13.05,21.5-17.77,7.92-7.08,10.23-9.85,13.22-15.79,1.99-3.95,4.17-10,4.84-13.42,1.22-6.2,3.29-10.77,9.2-20.3,2.27-3.65,3.33-6.89,3.93-12,1.81-15.42.45-67.32-2.12-80.5-3.34-17.19-12.59-39.4-18-43.26-1.4-.99-8.82-3.58-16.5-5.75-7.68-2.17-17.12-4.85-20.97-5.97-30.11-8.73-46.69-12.31-54.5-11.75-13.83.99-27.32,8.69-42.72,24.38l-11.22,11.43-2.97-1.53c-1.63-.85-3.27-2.03-3.65-2.64-.38-.61-4.51-2.87-9.18-5.02-6.98-3.21-8.28-4.16-7.33-5.31,1.69-2.04.15-2.52-4.95-1.56-10.2,1.92-10.25,2.22-1.11,6.97,4.55,2.37,9.6,5.63,11.22,7.26,1.92,1.91,4.34,3.13,6.93,3.48,2.19.29,3.98.86,3.98,1.27s-1.35,2.25-3.01,4.11c-3.89,4.38-7.67,10.75-8.58,14.46-.39,1.61-1.18,3.23-1.75,3.6-2.68,1.76-17.03-8.4-26.54-18.78-7.28-7.95-8.19-11.64-2.05-8.35,3.75,2,1.91-.87-3.32-5.19l-.2-.16c-5.75-4.76-7.24-5.99-7.18-7.15.02-.41.24-.82.54-1.38.56-1.04,2.62-3.3,4.59-5.02,3.4-2.99,3.96-3.14,11.78-3.08,6.78.06,9.67.63,16.54,3.3,7.04,2.73,9.15,3.14,13.72,2.64,5.02-.56,7.36-1.44,6.38-2.41-.97-.95-16.43-3.65-29.92-5.23-7.97-.93-14.84-1.98-15.25-2.33-.42-.35-.27-3.26.32-6.46.6-3.21.83-6.79.53-7.95-.49-1.91-7.26-7.48-7.91-6.51-.15.21-.71,1.72-1.24,3.35-2.27,6.94-16.12,12.24-28.82,11.05-10.35-.98-18.47-3-26.27-6.55-9.35-4.26-12.56-7.39-11.79-11.5.41-2.19-.05-4.35-1.49-7.04-1.14-2.14-2.08-4.6-2.08-5.46s-.64-2.45-1.43-3.52c-1.38-1.89-1.51-1.86-4.49.99-1.68,1.61-3.25,2.73-3.48,2.5-1.37-1.37-5.79-15.3-7.13-22.46-1.55-8.27-1.21-15.47.73-15.47,1.64,0,13.32,11.75,16.91,17.02,1.86,2.74,3.73,4.98,4.14,4.98,1.52,0,.68-5.34-1.83-11.6-1.41-3.54-2.42-6.9-2.24-7.45.94-2.81,22,19.95,23.32,25.2.45,1.79-.11,4.13-1.78,7.48-2.48,4.96-4.17,10.37-3.25,10.37.29,0,1.8-2.7,3.38-6l2.85-6,.68,8.72c.71,9.34,1.6,11.37,4.05,9.34,1.28-1.06,1.78-.66,3.26,2.59.96,2.12,1.83,3.99,1.94,4.17.38.67,8.37-4.89,8.37-5.83,0-1.78,2.75-1.04,3.25.87.58,2.2,5.17,3.33,7.11,1.75,2.33-1.9,8.57-12.94,9.25-16.36.62-3.14-.9-4.76-1.89-2-1.06,2.97-2.05-1-3.23-12.96-1.22-12.41-1.26-12.57-1.49-5.29-.13,4.12-.12,7.95.02,8.5.72,2.73.54,11.32-.28,13.75-2.2,6.48-5.02.67-6.87-14.12-1.13-9.05-1.08-11.43.39-19.47,1.94-10.62,4.48-21.61,4.65-20.16.07.55,1.71-1.8,3.65-5.22,3.65-6.45,6.6-9.28,9.66-9.28,2.51,0,2.29,1.1-2.27,11.22-3.93,8.75-5.81,14.78-4.6,14.78.33,0,1.34-1.44,2.25-3.2,3.02-5.83,22.86-28.68,23.95-27.58,1.34,1.34.43,11.2-1.61,17.55-1.28,3.95-1.96,7.53-1.53,7.96.43.42,4.23-2.86,8.44-7.29,7.58-7.99,14.39-17.31,19.66-26.94,1.51-2.75,3.53-5.9,4.48-7,1.89-2.17,14.01-26.63,14.01-28.27,0-.55.67-2.29,1.49-3.87,1.92-3.66,1.91-7.34-.01-10.08-3.93-5.61-24.79-15.62-37.98-18.23-9.15-1.81-9.08-1.77-12.52-7.34-3.32-5.38-16.18-17.48-20.2-19.02-1.25-.47-7.12-.56-13.03-.19-9.71.6-11.06.47-14-1.34-9.71-6.01-22.79-10.82-34.25-12.6-2.2-.35-5.24-.87-6.75-1.17-3.82-.76-3.44.79.75,3.04,4.98,2.68,4.45,3.99-1.25,3.09-2.61-.41-11.95-1.06-20.75-1.43-13.69-.59-16.58-1-20-2.86-14.01-7.58-48.2-7.63-71.27-.1-9.41,3.07-9.49,3.24-6.65,13.57,1.33,4.81,3.25,10.56,4.28,12.77l.17.37c1.75,3.75,2.63,5.64,2.26,7.23-.39,1.66-2.15,2.99-5.7,5.79-14.62,11.49-58.59,53.02-58.59,55.34,0,1.36,2.18.85,11.47-2.68,4.94-1.88,9.21-3.16,9.5-2.86.29.3-1.05,1.7-2.97,3.1-8.14,5.93-37.95,37.62-36.63,38.94.21.21,3.48-1.24,7.27-3.22,9-4.7,12.46-3.93,5.57,1.23-7.38,5.54-10.92,9.12-18.61,18.79-8.18,10.28-10.98,14.45-10.24,15.19.29.29,2.97-.87,5.95-2.58,2.99-1.71,5.78-3.11,6.21-3.11s-1.45,2.36-4.16,5.25c-8.71,9.29-29.14,38.3-27.87,39.58.33.32,4.36-1.42,8.97-3.87,4.61-2.45,8.71-4.13,9.1-3.73.4.39-1.93,4.22-5.17,8.49-3.24,4.28-8.6,11.68-11.92,16.46-4.82,6.93-8.35,10.54-17.5,17.89-12.91,10.36-17.53,14.54-37.53,33.97-13.6,13.21-24.95,26.99-32.5,39.45-8.6,14.2-14.94,31.14-14.94,39.94v3.96l4.16-4.19c6.62-6.69,6.99-5.89,3.89,8.35-5.19,23.75-6.81,53.34-2.55,46.45,1.4-2.27,2.14-.5,3.87,9.25,2.83,15.92,3.67,17.66,11.14,23.15,3.57,2.62,6.49,5.22,6.49,5.77,0,.65-1.91.76-5.25.32l-5.25-.71,3,3.21c3.22,3.43,18.8,14.04,26.99,18.37l4.99,2.64h316.52v70.04l-10.89,12.73c-5.98,7-19.07,22.4-29.09,34.23-10.01,11.83-20.34,23.97-22.94,27-4.74,5.5-26.74,31.36-30.56,35.92-1.11,1.33-5.17,6.09-9.02,10.58-3.85,4.5-9.92,11.67-13.5,15.95-3.58,4.27-6.96,8.28-7.52,8.91-.57.63-7.31,8.56-15,17.64-7.68,9.08-14.42,17-14.97,17.6-.56.61-2.81,3.28-5.01,5.93-2.2,2.65-9.62,11.34-16.5,19.31-6.88,7.97-15.34,18.02-18.82,22.33ZM69.91,472.01c0,1.14-6.72-1.7-7.98-3.37-.28-.38-5.25-4.95-11.02-10.16-18.43-16.64-25.45-24.13-27.18-29.03-8.96-25.34-6.31-50.99,8.31-80.5,3.27-6.6,7.17-13.52,8.66-15.38,1.49-1.86,4.19-5.19,6-7.4,4.27-5.2,5.49-7.55,4.82-9.29-.43-1.14-1.09-1.2-3.33-.3-7.33,2.94-14.08,6.65-20.14,11.06-3.65,2.66-6.79,4.35-6.99,3.76-.2-.6,2.23-4.99,5.39-9.77,18.62-28.13,42.86-51.79,69.2-67.57,5.91-3.54,9.81-6.69,11.98-9.68,7.7-10.61,11.67-15.14,16.77-19.15,6.35-5,6.78-7.43,1.22-6.99-2.39.19-3.71-.13-3.71-.91,0-1.7,11.32-18.18,17.67-25.71,2.93-3.48,5.33-6.97,5.33-7.75,0-1.71-2.56-1.82-6.9-.3-1.76.61-3.47.85-3.79.53-1.52-1.53,12.07-16.6,22.35-24.78,3.49-2.77,6.34-5.48,6.34-6.01,0-.58-2.35-.69-6-.28-4,.45-6,.32-6-.39,0-1.98,19.06-17.79,31.5-26.13,6.48-4.34,10.56-8.15,9.91-9.21-1.03-1.66-10.7-.83-18.16,1.56-1.48.48-2.25.32-2.25-.47,0-2.06,16.81-18.49,27.79-27.15,15-11.83,15.79-12.54,14.97-13.36-.41-.41-4.63.02-9.38.95-4.75.93-8.81,1.52-9.02,1.31-.22-.21,3.33-3.68,7.88-7.7,14.77-13.08,31.76-29.66,31.76-31.01,0-.72-2.02-4.56-4.49-8.52-5.05-8.1-8.46-15.16-8.49-17.59-.03-2.56,19.06-5.27,37.48-5.33,15.22-.04,21.48,1.05,29.84,5.2,4.72,2.34,2.5,2.36-7.42.07-16.17-3.73-52.92-2.88-52.92,1.23,0,1.21,4.15,1.93,11.18,1.95,6.55,0,21.91,1.77,22.75,2.61.23.23-.82,1.72-2.33,3.3-1.88,1.96-2.39,3.11-1.61,3.6.81.49.49,1.43-1.04,3.05-2.74,2.92-1.97,5.92,1.31,5.16,1.23-.29,5.39-1.84,9.24-3.45,8.08-3.39,20.63-6.87,28.34-7.86,3.05-.39,5.55-1.26,5.85-2.05.35-.91,1.9-1.28,4.67-1.11,2.34.15,4.07-.17,3.97-.74-.09-.55-.31-1.68-.5-2.5-.82-3.7,17.89-1.71,36.67,3.91,10.81,3.23,11.53,2.98,9.01-3.16-1.25-3.03,1.25-2,11.35,4.66,11.35,7.48,19.13,14.22,22.25,19.27,2.16,3.49,2.17,3.64.37,4.96-1.13.83-4.5,1.36-8.59,1.36h-6.72l-9.13-7.91c-9.83-8.52-14.56-11.21-22.84-12.96-9.92-2.11-29.91-.53-30.89,2.43-.22.67,4.03,1.52,11.42,2.29,11.96,1.25,18.97,2.74,20.77,4.42.62.58-.65.67-3.39.22-2.41-.39-9.39-.4-15.5-.02-15.8.99-19.04,3.75-7.84,6.66,2.34.62,4.49,1.48,4.76,1.92s-2.1,1.33-5.27,1.99c-5.56,1.14-11.26,3.69-11.26,5.04,0,.8,6.21,1.89,11,1.93,4.79.04,13.28,2.34,13.74,3.71.21.62-1.23,1.89-3.19,2.82-4.71,2.24-13.32,11.77-15.76,17.43-1.83,4.29-5.77,19.09-5.78,21.78-.01.69.57,1.25,1.28,1.25,1.19,0,3.37-3.27,10.04-15.11,3.59-6.38,8.38-10.29,19.04-15.54,8.82-4.34,25.14-10.35,28.11-10.35.79,0,4.92-1.1,9.16-2.45,4.62-1.47,8.3-2.13,9.17-1.64.85.48,5.42-.2,11.07-1.64,8.84-2.25,10.73-2.4,23.28-1.75l13.67.7.69,6.14c.67,5.9.93,6.36,6.72,11.75l6.03,5.62-.47,5.67c-.29,3.49-1.24,6.71-2.45,8.34-1.91,2.55-2.41,2.66-13.42,3.03-16.55.55-19.15.4-32.43-1.91-24.08-4.19-47.56,1.06-64.51,14.44-9.42,7.44-16.99,21.16-15.28,27.7.54,2.05.69,2,3.92-1.13,3.98-3.85,4.06-3.33,1.17,6.87-3.22,11.33-3.2,28.89.05,39.26,10.28,32.83,27.6,46.17,61.99,47.72,8.1.37,14.23.13,17.83-.67,3.02-.68,5.71-1,5.99-.72.99.99-3.58,2.66-10.56,3.86-9.06,1.55-26.29-.2-36.85-3.74-17.09-5.74-25.64-12.12-34.29-25.6-9.33-14.55-13.08-24.93-17.35-48.03-1.39-7.53-3.25-15.4-4.13-17.5-1.49-3.55-1.68-3.68-2.74-1.82-1.68,2.98-2.19,34.73-.81,50.45.66,7.45,2.52,21.54,4.13,31.3,1.62,9.76,2.94,18.06,2.94,18.43,0,1.72-10.81-13.48-18.13-25.5-11.83-19.42-21.36-38.78-25.36-51.51-4.33-13.74-4.99-14.9-7.05-12.2-3.79,4.98-5.42,18.33-5.42,44.53,0,29.4,2.72,51.67,8.55,69.93,1.51,4.75,1.82,8.07.75,8.07-.37,0-5.23-2.41-10.8-5.36-5.58-2.95-14.39-7.04-19.59-9.08-5.2-2.04-9.96-4.24-10.59-4.89-2-2.05-7.94-13.87-11.68-23.23-4.94-12.33-9.01-30.11-11.16-48.67-.36-3.16-1.03-5.97-1.48-6.24-1.09-.68-2.01,3.02-2.03,8.13,0,2.28-2,14.43-4.44,27-3.89,20.06-5.24,27.76-7.19,41.09-.41,2.81-.86,3.25-3.37,3.25-3.46,0-4.55-1.31-2.5-3.01,2.1-1.74,1.85-3.99-.44-3.99-6.44,0-37.34,8.62-52.39,14.61-12.14,4.83-19.31,8.44-30.18,15.19-22.99,14.27-28.25,20.38-35.62,41.3-3.61,10.23-5.23,20.85-2.98,19.46.5-.31,2.58-3.82,4.63-7.81,5.29-10.33,13.9-21.99,21.43-29.03,6.65-6.23,20.89-15.89,31.54-21.41,7.02-3.63,28.15-13.31,29.08-13.31.35,0,.35,1.12.01,2.5-.9,3.57,1.24,3.3,13.55-1.73,9.82-4.01,10.89-4.23,20.57-4.25,8.42-.02,10.53.29,11.97,1.73,1.67,1.67,1.27,1.75-8.22,1.76-10.17,0-17.46,1.29-17.46,3.09,0,1.14,7.68,4.85,10.13,4.88,1.83.02,4.48,2.75,3.56,3.66-.33.33-7.48,1.67-15.89,2.99-18.8,2.92-22.65,4.01-40.3,11.31-7.7,3.19-15.91,6.38-18.25,7.09s-4.25,1.67-4.25,2.13c0,1.34,12.72.97,24.58-.71,6.12-.88,12.89-1.27,15.4-.91,4.44.65,11.38,3.61,12.44,5.32.69,1.13-4.24,2.14-10.46,2.14s-17.74,2.27-25.37,4.93c-3.25,1.14-7.18,2.07-8.75,2.07-3.07,0-3.82,1.41-1.26,2.39.87.34,5.03.61,9.25.62,4.22,0,10.58.48,14.14,1.06,10.74,1.74,10.11,2.26-6.49,5.45-7.04,1.36-13.03,2.69-13.31,2.98-.98.97,3.32,3.47,7.08,4.11,2.06.36,3.75,1.04,3.75,1.53,0,1.03-4.49.48-18.86-2.3-11.45-2.22-14.06-1.66-10.57,2.29,2.68,3.02,13.3,9.79,23.43,14.94,9.98,5.06,9.03,5.81-4.44,3.52-11.4-1.95-22.04-2.1-19.19-.28,8.79,5.61,16.58,11.08,16.25,11.4-.21.22-4.31-.13-9.1-.76-12.38-1.65-12.72-.36-1.57,6.07,5.01,2.89,9.39,5.72,9.74,6.28.42.69-3.82.81-13.03.37-8.17-.39-13.66-.28-13.66.27,0,1.27,4.94,4.68,10.16,6.99,2.39,1.06,3.55,1.96,2.59,2-1.96.08-2.21,1.34-.8,3.97.52.98,6.15,5.7,12.5,10.5,6.35,4.79,11.55,9.18,11.55,9.74,0,1.29-4.04.49-14.72-2.91-4.52-1.44-8.49-2.35-8.82-2.02-2,2,6.39,11.07,13.25,14.32,5.05,2.4,4.16,3.84-1.96,3.19-2.89-.3-6.11-.89-7.15-1.3-1.75-.69-1.85-.4-1.24,3.41.36,2.3.35,4.17-.03,4.17-.77,0-10.66-8.08-11.11-9.08-.16-.34-1.45-2.15-2.87-4.02l-2.57-3.4.68,4c1.69,9.82,12.34,22.86,26.57,32.52,7.3,4.96,15.65,8.96,18.72,8.97,1.24.01,2.25.46,2.25,1.01s-2.39,1-5.32,1c-4.38,0-6.41-.66-11.5-3.75-12.54-7.61-23.92-17.86-36.63-33-3.38-4.03-5.55-4.22-5.54-.5.02,4.72,5.7,15.22,14.14,26.13,2.33,3.01,2.32,3.84-.02,4.58-1.35.43-2.02,1.86-2.39,5.12-.6,5.33-1.24,6.21-3.54,4.81-2.98-1.82-7.95-12.53-13.64-29.41-3.05-9.01-6.2-17.04-7.01-17.85-1.29-1.3-1.58-1.19-2.39.95-.5,1.33-1.24,5.23-1.63,8.67-.4,3.44-1.08,6.25-1.52,6.25s-1.57-2.9-2.53-6.45c-1.33-4.89-1.59-8.34-1.1-14.25.35-4.29.92-14.14,1.26-21.89.57-12.96.45-14.56-1.58-20-1.22-3.25-2.97-6.75-3.89-7.77-1.61-1.79-1.69-1.76-2.3,1-.35,1.57-.69,7.01-.75,12.07-.07,5.07-1.02,13.85-2.13,19.5-3.22,16.57-3.42,22.19-1.1,31.07,2.56,9.73,8.61,22.78,13.91,29.94,6.87,9.31,8.38,10.16,10.06,5.63.58-1.56,1.33-.61,3.88,4.86,1.74,3.73,4.54,8.28,6.21,10.1,1.68,1.82,3.05,3.51,3.05,3.75ZM545.08,469.82c-4.94.82-67.76.54-72.17-.31l-3.5-.68,4.5-1.2c28.77-7.66,58.67-18.18,71-24.98,7.3-4.03,16-10.4,16-11.71,0-.7-2-1.45-4.75-1.78-6.78-.8-18.31-5.31-22.57-8.82-2.72-2.24-4.11-4.56-5.54-9.19-2.23-7.21-4.69-21.49-3.85-22.33.32-.31,5,3.87,10.39,9.31,9.14,9.2,22.34,19.32,25.21,19.32.83,0,1.01-.75.56-2.25-.73-2.39-7.83-15.9-10.1-19.22-1.36-1.99-1.85-5.53-.76-5.53s13.77,7.28,20.4,11.69c8.06,5.36,9.32,5.48,8.44.81l-.65-3.5h19.51l4.85-4.86c5.7-5.69,6.05-8.09,2.34-15.64-3.78-7.67-3.36-10.58,2.27-16l4.75-4.57-4.75-4.44c-2.61-2.44-4.75-4.9-4.75-5.46,0-.6,2.72-1.03,6.5-1.03,5.39,0,6.5-.28,6.5-1.66,0-2.77-5.88-11.45-13.94-20.6-4.26-4.84-3.33-5.7,6.19-5.72,4.47,0,6.75-.41,6.75-1.19,0-3.28-9.86-16.45-18.16-24.26l-9.1-8.57h3.57c1.96,0,4.6.38,5.87.85,1.28.47,3.56,1.16,5.07,1.52,10.32,2.5-11.46-16.38-28.05-24.31-7.66-3.67-8.9-5.07-4.45-5.05,2.8.02,13.12,2.24,16.75,3.61,3.81,1.44-.55-2.67-8-7.54-6.88-4.5-6.94-4.59-3.85-4.89,1.74-.16,5.68.36,8.75,1.16,3.08.8,5.82,1.1,6.09.67.27-.44-2.07-2.98-5.2-5.65-6.83-5.84-5.66-6.55,4.94-2.99,14.98,5.03,22.15,9.15,27.68,15.9,6.57,8.02,12.69,20.26,14.87,29.72,1.47,6.42,1.71,12.78,1.62,44-.11,41.14-.1,41.05-7.76,52.89-2.37,3.66-6.4,8.88-8.97,11.59-2.57,2.72-4.67,5.12-4.67,5.34s1.12.11,2.5-.23c1.56-.39,2.5-.2,2.5.5,0,2.17-3.18,13.35-4.54,15.99-1.33,2.57-17.81,16.09-48.29,39.62-10.22,7.89-15.39,11.24-18,11.67ZM380.02,407.7c-2.64,4.35-3.11,4.58-3.1,1.5.06-9.51,21.17-58.54,32.71-75.95,10.93-16.5,36.32-34.26,56.26-39.37,10.94-2.81,11.19-2.18,3.26,8.07-8,10.33-15.24,21.8-15.24,24.13,0,2.03,1.65,1.66,14-3.14,9.8-3.82,21-5.75,21-3.63,0,.63-.35,1.14-.78,1.14-3.03,0-40.39,35.25-56.97,53.75-7.88,8.79-10.24,9.42-9.49,2.5.7-6.43,5.28-19.3,11.95-33.55,3.03-6.49,5.2-12.12,4.8-12.5-1.11-1.09-14.58,13.71-24.22,26.61-7.76,10.39-28.1,40.39-34.18,50.44ZM333.52,445.39c-1.2,5.26-3.15,7.63-4.04,4.89-1.77-5.46-3.91-14.99-7.03-31.33-2-10.45-4.57-23.72-5.73-29.5-3.43-17.2-3.82-20.02-4.28-31-.32-7.65-.21-9.25.42-5.87.47,2.55,1.75,6.67,2.86,9.17,3.95,8.94,16.31,24.72,19.32,24.68.76-.01,3.02-3.08,5.04-6.82,9.18-17.01,34.4-45.33,54.83-61.57,16.56-13.16,33-23.1,33-19.95,0,.35-3.26,4.06-7.25,8.25-25.61,26.9-59.24,74.6-73.79,104.63-5.89,12.16-11.66,27.06-13.35,34.42ZM344.94,343.21c-3.48,8.81-4.46,10.18-5.44,7.62-1.2-3.13,3.48-37.86,7.93-58.88,1.73-8.17,1.75-8.5.63-8.5-.47,0-1.83,3.71-3.03,8.25-1.2,4.54-2.59,8.91-3.09,9.72-3.1,4.98-4.1-21.17-1.53-39.97,2.4-17.53,2.3-18.24-3.25-22.34-10.6-7.83-14.73-14.03-17.63-26.49-1.71-7.31-.55-8.98,3.17-4.58,10.84,12.81,19.74,21.41,25.11,24.27,9.66,5.16,31.67,7.59,46.54,5.16,3.26-.54,6.19-.72,6.5-.41,1.4,1.4-5.57,5.43-21.94,12.7-4.93,2.19-7.87,5.22-10.09,10.39-2.79,6.51-2.33,7.32,1.57,2.8l3.44-4,.04,3c.01,1.65-.42,5.7-.97,9-.55,3.3-1.46,10.04-2.03,14.98-.81,7.08-1.74,10.26-4.36,15-1.83,3.31-4.44,8.04-5.81,10.52-7.47,13.54-12.86,24.41-15.76,31.76ZM277.91,317.34c0,2.6-1.97,2.61-11,.05-10.22-2.9-24.23-4.05-46.71-3.84-21.51.21-26.14-.34-40.71-4.82-12.55-3.85-5.13-5.85,15.53-4.2,7.2.58,13.31.83,13.58.57,1.1-1.11-4.02-2.66-14.93-4.52-20.03-3.43-23.82-7.94-6.88-8.2,2.54-.04,5.52-.43,6.62-.88,1.59-.64,1.09-.93-2.5-1.44-2.48-.35-7.42-.74-11-.87-4.87-.18-6.5-.6-6.5-1.68,0-.79,1.44-1.81,3.2-2.26,3.51-.91,5.39-2.8,2.78-2.8-.91,0-1.46-.56-1.24-1.25.75-2.3,20.44-6.85,30.26-6.99,13.8-.19,21.28,2.72,41.48,16.11,10.21,6.77,28.02,23.95,28.02,27.02ZM248.4,360.46c-.56.91-13.46,1.09-24.49.33-2.48-.17-12.38-.79-22-1.37-26.06-1.59-28.43-2.03-32.53-6-1.91-1.85-3.47-3.72-3.47-4.17s2.59-.79,5.75-.79c6.27.02,37.83,2.66,42.89,3.59,1.74.32,3.42.12,3.77-.46,1-1.62-31.34-10.49-47.89-13.14-3.83-.61-7.2-1.35-7.49-1.64-1.07-1.07,3.16-3.13,8.98-4.36,3.77-.8,5.99-1.78,5.99-2.64,0-.75-.79-1.37-1.75-1.39-4.77-.08-29.55-2.94-30.08-3.47-.95-.95,1.92-2.35,6.06-2.95,2.07-.3,5.57-.81,7.77-1.14,2.26-.33,3.74-1.02,3.4-1.57-.33-.54-4.05-2.56-8.25-4.48-7.14-3.26-7.52-3.59-5.71-4.93,1.28-.94,4.52-1.43,9.54-1.43,6.21,0,11.08,1,26.56,5.43,22.44,6.43,25,7.45,32.35,12.8,11.84,8.64,32.23,31.14,30.6,33.78ZM549,345.4c-2.53,1.36-3.52,1.27-16.42-1.5-11.32-2.42-30.81-4.45-42.81-4.45-5.17,0-6.92-.33-6.62-1.25.83-2.54,14.11-12.71,21.84-16.73,13.48-7.01,45.27-13.68,60.77-12.74,7.73.47,12.61,2.25,9.4,3.43-2.71.99-.95,2.32,5.74,4.36,7.32,2.22,13.52,5.73,13.14,7.43-.12.55-1.35.85-2.74.67-2.38-.31-2.47-.14-1.84,3.25.84,4.5.65,4.51-14.55.69-18.46-4.64-30.7-4.89-49.75-1.03-2.89.58-5.25,1.41-5.25,1.84s5.51,1.06,12.25,1.4c14.47.75,22.49,2.1,29.05,4.91,6.73,2.89,5.94,4.7-3.03,6.9-3.97.98-8.11,2.25-9.18,2.82ZM477.71,269.05c-2.98,1.54-5.44,1.8-6.13.65-.84-1.41,8.08-13.55,15.39-20.95,11.68-11.82,27.36-21.18,36.89-22.04,8.84-.8,38.67,8.56,39.84,12.49.28.93-1.68,1.25-7.58,1.25-9.67,0-14.21.82-14.21,2.56,0,.72,1.01,1.62,2.25,2,4.64,1.42,14.75,6.51,14.75,7.43,0,.8-4.95,4.9-13.18,10.92-1.67,1.22-3.26,1.12-12.12-.74-14.75-3.11-20.59-3.57-28.33-2.22-7.02,1.21-22.71,6.14-27.57,8.65ZM584.72,389.95c-2.85,1.37-6.56,2.47-8.25,2.43-1.68-.04-7.83-2.26-13.66-4.93-18.77-8.62-34.26-13.31-51.15-15.5-2.61-.34-4.75-1.04-4.75-1.54,0-2.84,34.75-16.53,53.1-20.93,15.41-3.7,24.95-2.18,34.49,5.47l2.91,2.34-2.75,1.05c-2.81,1.08-3.77,3.11-1.47,3.11.7,0,2.25.69,3.45,1.52l2.17,1.53-2.05,3.48c-1.13,1.91-2.43,3.71-2.9,4-.46.29-7.28-.41-15.15-1.55-14.59-2.11-31.6-2.37-32.05-.48-.12.55,2.64,1.35,6.15,1.79,3.51.43,8.97,1.66,12.13,2.72,7.39,2.49,24.97,11.04,24.97,12.14,0,.46-2.33,1.97-5.19,3.35ZM488.91,306.96c-19.19,5.16-19.72,4.76-8.25-6.31,9.16-8.83,16.24-14.21,21.75-16.51,8.98-3.75,55.79-14.71,62.69-14.67,8.03.04,24.3,6.15,22.14,8.32-.34.33-6.06.36-12.72.07-7.45-.34-12.68-.15-13.58.47-.56.38-.99.62-1.01.9-.06.59,1.69,1.36,7.88,4.06.46.2.95.41,1.46.64,9.4,4.11,13.62,6.87,12.39,8.1-.41.41-9.15-.28-19.43-1.55-19.54-2.4-31.46-2.34-38.4.21-3.14,1.16-2.39,1.3,9.16,1.77l12.58.51,7.84,4.99c4.31,2.74,8.04,5.57,8.27,6.29.02.07.05.14.07.2.08.19.14.35.09.47-.22.62-3.13.3-20.99-1.69-1.18-.13-2.42-.27-3.73-.42-14.28-1.58-16.07-1.59-27-.05-6.44.91-15.99,2.8-21.21,4.2ZM193.13,402.91c-11.44,1.56-26.38,1.84-33.78.62-2.23-.36-6.23-1.94-8.89-3.5-7.08-4.14-4.49-5.06,10.28-3.64,17.8,1.71,42.64,1.1,40.5-.99-1.03-1-20.6-6.01-21.19-5.42-.23.23.65,1.32,1.97,2.41l2.39,1.99-2.29.04c-2.54.03-16-4.98-26.72-9.95-10.25-4.76-28.71-14.06-30.81-15.54-2.55-1.77-.66-2.59,3.41-1.47,5.15,1.41,14.91,2.01,14.91.92,0-.53-2.42-2.1-5.37-3.5-2.96-1.4-6.44-3.53-7.74-4.74l-2.37-2.19,3.15-.31c1.73-.16,7.61.1,13.08.6,8.89.8,10.51,1.27,15.35,4.41,20.86,13.54,38.64,21.99,60.83,28.92,7.97,2.49,6.42,4.02-7.93,7.81-4.12,1.09-12.58,2.68-18.78,3.53ZM427.41,426.48c-4.4,1.07-8.56,1.96-9.25,1.96-2.36.02-1.24-2.28,4.09-8.38,7.92-9.06,13.09-17.11,19.11-29.77l5.39-11.34,7.91-5.22c11.77-7.77,15.55-9.23,24-9.26,4.12-.01,7.25.41,7.25.97s-1.75,2.09-3.88,3.43c-4.65,2.94-7.45,5.59-12.24,11.58-5.04,6.31-13.17,19.04-12.55,19.66.28.28,2.59-.76,5.12-2.32,9.63-5.94,14.11-8.29,15.8-8.32.96-.01,1.75.18,1.75.43,0,2.75-15.98,27.6-19.55,30.41-1.67,1.31-5.55,2.17-13.64,3.02-6.22.66-14.91,2.07-19.31,3.15ZM158.91,442.49c-15.06,5.89-21.35,6.81-29.5,4.34-8.49-2.59-13.5-4.62-13.5-5.47,0-.45,3.04-.95,6.75-1.11,6.46-.29,6.63-.36,4.06-1.69-1.49-.76-2.92-1.96-3.2-2.67-.39-1.03,2.73-1.26,15.2-1.12,15.1.17,21.19-.45,21.19-2.17,0-.44-5.06-.77-11.25-.73-9.19.07-12.54-.34-18.28-2.22-3.86-1.27-7.69-2.73-8.5-3.25-2.62-1.69.94-2.92,8.53-2.95,9.18-.04,11.38-1.33,5.98-3.52-8.19-3.31-14.48-6.85-14.48-8.14,0-1.03,2.26-1.34,9.6-1.34,8.09,0,11.93.63,24.25,3.99,8.06,2.19,19.15,4.91,24.65,6.05,19.32,3.98,20.29,4.53,13.75,7.79-3.65,1.82-7.28,3.28-35.25,14.21ZM322.52,76.34c-4.22,3.38-4.61,3.56-4.61,2.2,0-2.47,8.38-11.11,13.66-14.08,5.55-3.12,7.29-4.6,7.32-6.23.03-1-5.88-3.99-9.28-4.7-4.2-.87-3.31-2.54,1.53-2.86,2.35-.16,4.88-.5,5.63-.76,2.16-.76-.48-3.3-6.33-6.08l-5.03-2.39,15.25.43c8.47.24,15.25.04,15.25-.45s-1.57-2.14-3.5-3.68c-1.92-1.53-3.5-3.1-3.5-3.49,0-2.81,14.62,7.67,23.71,16.99,3.17,3.26,3.18,3.3,1,4.15-1.22.47-4.01,1.33-6.21,1.91-13.92,3.67-20.23,5.9-30,10.63-6.05,2.92-12.75,6.71-14.89,8.41ZM396.6,137.96c.32,1.92.32,3.49.01,3.49-2.36,0-2.57-17.36-.31-25.5,1.88-6.75,2.68-12.66,1.64-12.02-.47.29-1.91,3.5-3.19,7.14-1.29,3.64-2.91,6.83-3.6,7.11-.69.27-2.34-.22-3.66-1.08-1.77-1.17-3.74-1.42-7.52-.97-2.81.33-5.36.99-5.65,1.46-1.26,2.05-3.18.48-5.7-4.66-1.49-3.04-2.71-7.09-2.71-9,0-3.21.24-3.48,3.03-3.48,1.82,0,3.27.62,3.63,1.56.48,1.26.82,1.11,1.75-.75,1.03-2.08,1.95-2.34,9.12-2.63,9.42-.38,24.5,2.45,26.01,4.88.31.5-.59,2.87-1.99,5.26-1.4,2.4-2.55,4.86-2.55,5.47s-1.08,2.72-2.41,4.67c-3.59,5.29-6.57,14.91-5.9,19.05ZM439.23,130.45c-2.19,3.58-4.74,6.65-5.65,6.82-2.03.4-2.07-.14-.29-3.62.76-1.48,1.72-5.62,2.12-9.2.41-3.58,1.25-6.85,1.87-7.28s-.13-.49-1.66-.13c-1.91.44-3.36.13-4.61-1-1.62-1.47-1.95-1.48-3.08-.12-1.83,2.21-2.82,1.91-4.89-1.5-1.6-2.63-2-2.83-3.11-1.5-.73.88-2.88,1.53-5.08,1.53s-4.96.44-6.37.98c-4.27,1.62-3.09-.79,3.68-7.55,5.44-5.43,6.89-6.34,11.17-6.98,3.22-.47,5.46-.33,6.5.42,2.96,2.14,4.35,2.45,5.97,1.32.88-.63,3-1.84,4.71-2.7,2.97-1.51,3.27-1.46,7.25,1.15,2.28,1.49,4.15,3.48,4.15,4.42,0,1.97-6.83,15.39-12.68,24.94ZM462.78,93.95c-2.03,3.85-4.29,7.11-5.03,7.25-.74.14-3.24-1.21-5.55-3-4.75-3.66-5.07-5.21-2.85-13.56,1.87-7.05,2.98-8.19,7.99-8.19,2.92,0,5.6-.9,8.91-3,3.96-2.51,4.82-2.75,5.32-1.45.66,1.73-3.17,11.29-8.79,21.95ZM420.91,44.87c0,.32-1.24.49-2.75.39-1.51-.11-5.53-.35-8.92-.55-5.98-.34-6.28-.49-9.98-5.06-2.1-2.58-5.78-6.81-8.18-9.4-2.39-2.58-4.06-5.17-3.7-5.75.84-1.37,11.59-1.36,15.2.02,1.55.58,4.33,2.72,6.19,4.75,4.08,4.43,12.14,14.8,12.14,15.6ZM348.88,121.46c-2.14,1.1-4.09,1.99-4.32,1.99-1.02,0-1.28-2.86-.73-8l.58-5.5,6.5-3.24c8.8-4.39,11.25-4.3,13.31.49,2.76,6.4,2.35,13.4-.84,14.62-1.6.62-3.4-2.32-5.46-8.87-1.84-5.88-3.37-6.9-2.74-1.82.63,5.08-.89,7.57-6.3,10.33ZM377.88,156.29c-.01.91-.85,3.46-1.86,5.66l-1.85,4-.77-3.89c-1.71-8.65.98-23.53,6.61-36.61,2.23-5.19,3.52-6.15,4.58-3.39.68,1.77-.24,6.77-4.1,22.23-1.42,5.68-2.59,11.08-2.61,12ZM345.62,53.66c3.1,3.18,4.21,3.72,6.75,3.29,1.67-.28,6.15-.97,9.96-1.55,7.63-1.15,8.9-1.63,8.03-3.03-2.18-3.53-17.67-7.57-24.58-6.4-4.97.84-5.01,2.73-.16,7.69ZM279.06,25.57l-.6.21c-4.08,1.4-5.16,1.77-5.45,1.45-.1-.12-.1-.33-.1-.62v-.11c0-.53,1.58-1.71,3.52-2.62,5.49-2.61,5.18-3.53-.95-2.81-4.62.54-5.57.39-5.57-.88,0-1.73-2.04-2.74-5.58-2.74-1.33,0-2.42-.46-2.42-1.01,0-1.12,3.51-.78,17.5,1.7,4.95.87,10.1,2.15,11.44,2.83,2.38,1.2,2.33,1.26-1.94,1.98-2.41.41-6.85,1.59-9.85,2.62ZM446.5,63.95c-.76,3.02-2.88,3.21-5.59.5-2.08-2.08-2.72-7.43-1.02-8.49.53-.33,2.78-.11,5,.48,2.96.8,4.02,1.6,4.02,3.05,0,1.08-.4,1.96-.89,1.96s-1.18,1.12-1.52,2.5ZM354.66,210.91c.26,1.4.91,2.54,1.44,2.54,1.31,0,.58-4.25-.81-4.71-.71-.23-.94.57-.63,2.17Z"/>
  </g>
</svg>